:SAMPLES-PER-SECOND 30
:FULLY-SPECIFIED
:DEGREES
189
root  34.78446119 36.4421454 -14.69684511 13.14576721 17.75793457 5.994515896
lowerback  -8.453660011 4.237860203 4.570169449
upperback  -4.601910114 4.974299908 -5.35119009
thorax  0.8082399964 2.215019941 -7.710690022
lowerneck  -16.00819969 -2.584189892 1.066930056
upperneck  12.79759979 -5.029280186 6.532090187
head  6.694419861 -1.89669013 1.398839951
lclavicle  0 -4.497500157e-015 -2.743230041e-014
lhumerus  -44.23789978 28.28129768 65.48760223
lradius  -0.4370599985 -6.507048965e-006 25.45940018
lwrist  4.824992743e-007 -3.790274832e-007 -35.29610062
lhand  -4.451559408e-031 -37.51129913 -10.63269997
lfingers  90 7.125020027 -90
lthumb  95.09316353 -25.44705253 101.7186106
rclavicle  0 -4.497500157e-015 -2.743230041e-014
rhumerus  73.89920044 -5.358089924 -57.40119934
rradius  -5.16745672e-007 2.214343908e-008 36.50540161
rwrist  1.129822067e-006 0.001802438172 -154.2799988
rhand  -1.771825329e-031 4.818809986 -7.636109829
rfingers  -90 -7.125020027 -90
rthumb  -85.02823693 -8.470369444 -59.43449722
rfemur  -15.24848747 8.110303879 15.10604763
rtibia  -4.389989376 2.368996382 25.83786964
rfoot  -3.875668526 -12.46976852 -47.06519318
rtoes  3.830539593 19.64450682 -101.263821
lfemur  -13.60643864 -24.53595734 -18.53352737
ltibia  3.690372229 3.281308651 14.32718277
lfoot  0.5307192802 -31.17307091 25.57826233
ltoes  -8.658701613 -18.09808922 -116.1149662
190
root  34.78859729 36.44407377 -14.69556703 13.1682539 17.63614082 5.979409695
lowerback  -8.443460464 4.232220173 4.58480978
upperback  -4.593249798 4.966489792 -5.355450153
thorax  0.8118900061 2.211390018 -7.72495985
lowerneck  -15.99569988 -2.549989939 1.159809947
upperneck  12.81379986 -4.998370171 6.485809803
head  6.693240166 -1.881380081 1.372280002
lclavicle  0 -4.497500157e-015 -2.743230041e-014
lhumerus  -44.27590179 28.30249977 65.40940094
lradius  -0.4356666803 -6.507048965e-006 25.46619797
lwrist  4.824992743e-007 -3.790274832e-007 -35.27669907
lhand  -4.44864644e-031 -37.46239853 -10.61909962
lfingers  90 7.125020027 -90
lthumb  95.06720745 -25.43556326 101.6650055
rclavicle  0 -4.497500157e-015 -2.743230041e-014
rhumerus  73.73349762 -5.279889584 -57.17520142
rradius  -5.16745672e-007 2.214343908e-008 36.70920181
rwrist  1.129822067e-006 0.001802438172 -154.3639984
rhand  -1.771347437e-031 4.631830215 -7.63601017
rfingers  -90 -7.125020027 -90
rthumb  -85.07129758 -8.457841046 -59.61663409
rfemur  -15.28901863 8.186263084 15.07738686
rtibia  -4.376953125 2.361106634 25.81903267
rfoot  -3.867886066 -12.48338413 -47.05786896
rtoes  3.835561359 19.64356424 -101.2787589
lfemur  -13.63902092 -24.39969063 -18.53742027
ltibia  3.6864748 3.294030428 14.34347439
lfoot  0.5287390947 -31.20143318 25.56043434
ltoes  -8.657021693 -18.09887191 -116.1095585
191
root  34.7928325 36.44518514 -14.69311752 13.17495918 17.51619911 5.972690105
lowerback  -8.454311371 4.230480194 4.603460312
upperback  -4.586410046 4.963089943 -5.345719814
thorax  0.8250799775 2.210350037 -7.724720001
lowerneck  -15.96000004 -2.524349928 1.189890027
upperneck  12.80179977 -4.966660023 6.472549915
head  6.68132019 -1.867060065 1.366889954
lclavicle  0 -4.497500157e-015 -2.743230041e-014
lhumerus  -44.30149841 28.25620079 65.41030121
lradius  -0.434235394 -6.507048965e-006 25.49799538
lwrist  4.824992743e-007 -3.790274832e-007 -35.19670105
lhand  -4.446661019e-031 -37.42900085 -10.61639977
lfingers  90 7.125020027 -90
lthumb  95.05099193 -25.43419218 101.6290747
rclavicle  0 -4.497500157e-015 -2.743230041e-014
rhumerus  73.57180023 -5.227119923 -56.90399933
rradius  -5.16745672e-007 2.214343908e-008 36.85919952
rwrist  1.129822067e-006 0.001802438172 -154.6779938
rhand  -1.771050294e-031 4.511620045 -7.699289799
rfingers  -90 -7.125020027 -90
rthumb  -85.1311005 -8.395124379 -59.73844529
rfemur  -15.30189323 8.276769638 15.03902626
rtibia  -4.357631207 2.347658873 25.79752731
rfoot  -3.86127758 -12.51462936 -47.05462265
rtoes  3.84916503 19.64100437 -101.3192284
lfemur  -13.61163521 -24.32898521 -18.56874657
ltibia  3.700144768 3.291535616 14.31001282
lfoot  0.5245053172 -31.18383598 25.61175728
ltoes  -8.691414072 -18.08281019 -116.2203142
192
root  34.79695658 36.44621241 -14.69055386 13.19297028 17.39941216 5.993865967
lowerback  -8.436670303 4.224820137 4.648919582
upperback  -4.588409901 4.953919888 -5.318089962
thorax  0.812936008 2.20559001 -7.723430157
lowerneck  -16.14349937 -2.52470994 1.245769978
upperneck  12.9843998 -4.986420155 6.394110203
head  6.768459797 -1.870769978 1.328289986
lclavicle  0 -4.497500157e-015 -2.743230041e-014
lhumerus  -44.3506012 28.31990051 65.36930084
lradius  -0.4327657223 -6.507048965e-006 25.51339912
lwrist  4.824992743e-007 -3.790274832e-007 -35.2173996
lhand  -4.446417461e-031 -37.42490005 -10.58600044
lfingers  90 7.125020027 -90
lthumb  95.04224877 -25.40447313 101.6217233
rclavicle  0 -4.497500157e-015 -2.743230041e-014
rhumerus  73.45809937 -5.141700268 -56.74829865
rradius  -5.16745672e-007 2.214343908e-008 36.99840164
rwrist  1.129822067e-006 0.001802438172 -154.8249969
rhand  -1.771052586e-031 4.512559891 -7.809189796
rfingers  -90 -7.125020027 -90
rthumb  -85.18683755 -8.300293962 -59.74564965
rfemur  -15.34164047 8.377565384 14.98010159
rtibia  -4.355196476 2.343870163 25.82820702
rfoot  -3.860928535 -12.50385761 -47.01347351
rtoes  3.85329536 19.64022527 -101.3315167
lfemur  -13.53526497 -24.23384857 -18.64587212
ltibia  3.743920565 3.288314581 14.18678761
lfoot  0.5153268576 -31.11960793 25.62983894
ltoes  -8.69457704 -18.08132903 -116.2305049
